<?xml version="1.0" encoding="UTF-8" standalone="no"?>
<!DOCTYPE svg PUBLIC "-//W3C//DTD SVG 1.1//EN" "http://www.w3.org/Graphics/SVG/1.1/DTD/svg11.dtd">
<svg width="100%" height="100%" viewBox="0 0 24 24" version="1.1" xmlns="http://www.w3.org/2000/svg" xmlns:xlink="http://www.w3.org/1999/xlink" xml:space="preserve" xmlns:serif="http://www.serif.com/" style="fill-rule:evenodd;clip-rule:evenodd;stroke-linecap:round;stroke-linejoin:round;">
    <path d="M14,12C14,10.896 13.104,10 12,10L4,10C2.896,10 2,10.896 2,12L2,20C2,21.104 2.896,22 4,22L12,22C13.104,22 14,21.104 14,20L14,12Z" style="fill:none;stroke:rgb(191,219,254);stroke-width:2px;"/>
    <path d="M17.92,14L21.42,10.5C22.185,9.652 22.185,8.348 21.42,7.5L16.42,2.58C15.572,1.815 14.268,1.815 13.42,2.58L10,6" style="fill:none;fill-rule:nonzero;stroke:rgb(254,202,202);stroke-width:2px;"/>
    <path d="M6,18L6.01,18" style="fill:none;fill-rule:nonzero;stroke:rgb(191,219,254);stroke-width:2px;"/>
    <path d="M10,14L10.01,14" style="fill:none;fill-rule:nonzero;stroke:rgb(191,219,254);stroke-width:2px;"/>
    <path d="M15,6L15.01,6" style="fill:none;fill-rule:nonzero;stroke:rgb(254,202,202);stroke-width:2px;"/>
    <path d="M18,9L18.01,9" style="fill:none;fill-rule:nonzero;stroke:rgb(254,202,202);stroke-width:2px;"/>
</svg>
